<?xml version="1.0" encoding="utf-8"?>
<!-- Generator: Adobe Illustrator 23.0.0, SVG Export Plug-In . SVG Version: 6.00 Build 0)  -->
<svg version="1.1" id="Слой_1" xmlns="http://www.w3.org/2000/svg" xmlns:xlink="http://www.w3.org/1999/xlink" x="0px" y="0px"
	 viewBox="0 0 256 40" style="enable-background:new 0 0 256 40;" xml:space="preserve">
<style type="text/css">
	.st0{fill:#006F3C;}
	.st1{fill:#009E4A;}
	.st2{fill:#00AE4D;}
	.st3{fill:#00AD4D;}
	.st4{fill:#72BF44;}
	.st5{fill:#73BF44;}
	.st6{fill:#A2CD3A;}
	.st7{fill:#A8D166;}
	.st8{fill:#95C93D;}
	.st9{fill:#76C043;}
	.st10{fill:#68BD45;}
	.st11{fill:#00B04C;}
	.st12{fill:#8FC73F;}
	.st13{fill:#29B04A;}
	.st14{fill:#006738;}
	.st15{fill:#008E49;}
	.st16{fill:#008445;}
	.st17{fill:#008C48;}
	.st18{fill:#005E33;}
	.st19{fill:#00733D;}
	.st20{fill:#007F43;}
	.st21{fill:#008345;}
	.st22{fill:#00753F;}
	.st23{fill:#007D42;}
	.st24{fill:#007B41;}
	.st25{fill:#57B647;}
	.st26{fill:#77C043;}
	.st27{fill:#3BB54A;}
	.st28{fill:#27B34B;}
	.st29{fill:#47B649;}
	.st30{fill:#00B14C;}
	.st31{fill:#4AB749;}
	.st32{fill:#6AC070;}
	.st33{fill:#6FBF59;}
	.st34{fill:#6ABD45;}
	.st35{fill:#6BBE45;}
	.st36{fill:#69BD45;}
	.st37{fill:#63BC46;}
	.st38{fill:#3DB54A;}
	.st39{fill:#006F3B;}
	.st40{fill:#00A84D;}
	.st41{fill:#00924B;}
	.st42{fill:#00AD4E;}
	.st43{fill:#00AC4E;}
	.st44{fill:#00AB4E;}
	.st45{fill:#52A846;}
	.st46{fill:#004824;}
	.st47{fill:#008244;}
	.st48{fill:#00522A;}
	.st49{fill:#18B24B;}
	.st50{fill:#009C4D;}
	.st51{fill:#005029;}
	.st52{fill:#008F49;}
	.st53{fill:#006838;}
	.st54{fill:#008947;}
	.st55{fill:#00A04E;}
	.st56{fill:#24B34B;}
	.st57{fill:#78C156;}
	.st58{fill:#0B2F1A;}
	.st59{fill:#043B1D;}
	.st60{fill:#005B31;}
	.st61{fill:#004D27;}
	.st62{fill:#00AA4C;}
	.st63{fill:#006235;}
	.st64{fill:#00562D;}
	.st65{fill:#00914A;}
	.st66{fill:#009A4C;}
	.st67{fill:#7AC143;}
	.st68{fill:none;stroke:#FFFFFF;stroke-width:2;stroke-miterlimit:10;}
	.st69{fill:#00A64D;}
	.st70{fill:#006637;}
	.st71{fill:#00AE4C;}
	.st72{fill:#AFD46E;}
	.st73{fill:#1CB24B;}
	.st74{fill:#8BC750;}
	.st75{fill:#00A64F;}
	.st76{fill:#8BC648;}
	.st77{fill:#4FB848;}
	.st78{fill:#00A94F;}
	.st79{fill:#00AF4D;}
	.st80{fill:#008D49;}
	.st81{fill:#005A30;}
	.st82{fill:#004A25;}
	.st83{fill:#00421F;}
	.st84{fill:#043A1D;}
	.st85{fill:#033F1E;}
	.st86{fill:#00A54D;}
	.st87{fill:#01411F;}
	.st88{fill:#60BB50;}
	.st89{fill:#56B947;}
	.st90{fill:#60BB46;}
	.st91{fill:#00A64E;}
	.st92{fill:#6BBE54;}
	.st93{fill:#00542C;}
	.st94{fill:#007940;}
	.st95{fill:#008646;}
	.st96{fill:#00A850;}
	.st97{fill:#008847;}
	.st98{fill:#8FC744;}
	.st99{fill:#45B649;}
	.st100{fill:#006436;}
	.st101{fill:#014421;}
	.st102{fill:#2AB34B;}
	.st103{fill:#34B44A;}
	.st104{fill:#00773F;}
	.st105{fill:#12B24B;}
	.st106{fill:#008948;}
	.st107{fill:#005D32;}
	.st108{fill:#00763F;}
	.st109{fill:#006E3B;}
	.st110{fill:#51B848;}
	.st111{fill:#6ABE57;}
	.st112{fill:#009D4D;}
	.st113{fill:#010101;}
	.st114{fill:#A5A4A4;}
</style>
<polygon class="st0" points="19.93,15.63 19.94,16.36 20.2,16.15 "/>
<polygon class="st1" points="19.94,16.36 20.36,16.5 20.2,16.15 "/>
<polygon class="st2" points="20.36,16.5 20.47,16.15 20.2,16.15 "/>
<polygon class="st3" points="20.47,16.15 19.93,15.63 20.2,16.15 "/>
<polygon class="st4" points="19.93,15.63 19.11,14.95 18.69,15.03 19.94,16.36 "/>
<polygon class="st5" points="20.36,16.5 20.91,17.48 20.72,18.14 19.94,16.36 "/>
<polygon class="st6" points="20.72,18.14 20.27,18.53 19.94,16.36 "/>
<polygon class="st7" points="19.94,16.36 19.48,16.75 20.27,18.53 "/>
<polygon class="st8" points="18.69,15.03 18.13,15.43 19.94,16.36 "/>
<polygon class="st9" points="18.13,15.43 19.48,16.75 19.94,16.36 "/>
<polygon class="st10" points="19.05,17.12 17.76,15.69 18.13,15.43 19.48,16.75 "/>
<polygon class="st11" points="17.76,15.69 16.74,16.5 19.05,17.12 "/>
<polygon class="st12" points="19.48,16.75 19.05,17.12 19.65,18.94 20.27,18.53 "/>
<polygon class="st13" points="19.65,18.94 18.78,19.64 19.05,17.12 "/>
<polygon class="st14" points="18.8,19.51 18.04,19.73 18.58,16.99 19.05,17.12 "/>
<polygon class="st15" points="16.74,16.5 16.71,16.91 18.47,17.52 18.58,16.99 "/>
<polygon class="st16" points="16.71,16.91 16.2,17.72 18.47,17.52 "/>
<polygon class="st17" points="18.04,19.73 17.33,19.9 17.83,17.58 18.47,17.52 "/>
<polygon class="st18" points="16.2,17.72 16.03,18.57 17.83,17.58 "/>
<polygon class="st19" points="17.33,19.9 16.49,19.9 17.31,17.86 17.83,17.58 "/>
<polygon class="st20" points="16.49,19.9 15.77,19.85 16.77,18.16 17.31,17.86 "/>
<polygon class="st21" points="15.77,19.85 16.03,18.57 16.77,18.16 "/>
<polygon class="st22" points="19.79,15.51 19.56,14.45 20.12,13.75 19.93,15.63 "/>
<polygon class="st23" points="20.12,13.75 20.72,13.37 20.15,15.84 19.93,15.63 "/>
<polygon class="st24" points="20.4,14.74 21.37,16.81 20.4,16.36 20.47,16.15 20.15,15.84 "/>
<polygon class="st25" points="20.72,13.37 21.49,12.94 20.74,15.45 20.4,14.74 "/>
<polygon class="st20" points="21.37,16.81 22.32,16.75 20.84,15.1 20.74,15.45 "/>
<path class="st26" d="M21.49,12.94c0.08-0.03,0.75-0.3,0.75-0.3l-0.5,2.39l-0.9,0.07L21.49,12.94z"/>
<polygon class="st27" points="21.74,15.03 23.19,16.29 22.32,16.75 20.84,15.1 "/>
<polygon class="st28" points="23.19,16.29 23.81,15.84 21.74,15.03 "/>
<polygon class="st11" points="22.24,12.64 22.92,12.56 21.74,15.03 "/>
<polygon class="st29" points="21.74,15.03 22.6,14.69 22.92,12.56 "/>
<polygon class="st30" points="22.6,14.69 23.81,15.84 21.74,15.03 "/>
<polygon class="st2" points="22.6,14.69 23.4,14.25 22.92,12.56 "/>
<polygon class="st31" points="23.4,14.25 23.81,15.84 22.6,14.69 "/>
<polygon class="st32" points="22.92,12.56 24.03,12.56 23.4,14.25 "/>
<polygon class="st33" points="23.4,14.25 24.11,13.87 23.81,15.84 "/>
<polygon class="st34" points="24.11,13.87 24.82,12.69 24.03,12.56 23.4,14.25 "/>
<polygon class="st35" points="23.81,15.84 24.49,15.03 24.11,13.87 "/>
<polygon class="st36" points="24.82,12.69 25.46,13.05 24.11,13.87 "/>
<polygon class="st37" points="25.46,13.05 24.49,15.03 24.11,13.87 "/>
<polygon class="st38" points="23.4,12.56 24.11,9.18 26.33,5.4 28.34,4.24 23.76,12.56 "/>
<polygon class="st39" points="28.34,4.24 28.5,3.85 31.85,3.02 34.01,3.27 27.72,7.56 24.15,12.58 23.76,12.56 "/>
<polygon class="st18" points="25.46,13.05 28.13,8.67 38.72,3.88 34.01,3.27 27.72,7.56 24.15,12.58 24.82,12.69 "/>
<polygon class="st40" points="38.72,3.88 41.74,4.49 28.13,8.67 "/>
<polygon class="st41" points="25.46,13.05 31.44,12.38 36.1,6.22 28.13,8.67 "/>
<polygon class="st2" points="36.1,6.22 41.74,4.49 43.4,5.36 38.72,7.75 "/>
<polygon class="st2" points="36.1,6.22 38.72,7.75 35.98,11.38 31.44,12.37 "/>
<polygon class="st42" points="35.98,11.38 41.26,10.86 42.54,8.4 38.72,7.75 "/>
<polygon class="st2" points="38.72,7.75 43.4,5.36 46.58,6.94 42.54,8.4 "/>
<polygon class="st43" points="42.54,8.4 48.74,9.3 46.58,6.94 "/>
<polyline class="st44" points="48.74,9.3 49.46,10.19 41.26,10.86 42.54,8.4 "/>
<polygon class="st45" points="25.26,13.46 42.54,10.75 41.26,10.86 35.98,11.38 31.38,12.38 25.46,13.05 "/>
<polygon class="st46" points="24.49,15.03 24.41,15.45 24.72,15.84 26.08,16.38 "/>
<polygon class="st47" points="24.49,15.03 25.26,13.46 27.09,13.17 25.87,14.04 "/>
<polygon class="st48" points="25.92,14 28.53,17.56 33.01,19.49 28.4,17.82 25.62,14.22 "/>
<polygon class="st49" points="25.62,14.22 28.4,17.82 26.08,16.38 24.49,15.03 "/>
<polygon class="st50" points="28.4,12.96 35.17,19.72 33.01,19.49 28.53,17.56 25.92,14 27.09,13.17 "/>
<polygon class="st21" points="32.25,16.8 39.11,19.64 35.17,19.72 "/>
<polygon class="st15" points="28.4,17.82 33.01,19.49 37.22,20.92 36.1,21.5 "/>
<polygon class="st51" points="36.1,21.5 33.91,21.84 28.13,18.98 26.8,16.83 28.4,17.82 "/>
<path class="st22" d="M33.91,21.84c-0.07-0.04-4.92-0.89-4.92-0.89l-0.85-1.97L33.91,21.84z"/>
<polygon class="st52" points="39.03,19.64 40.62,19.64 37.22,20.92 33.01,19.49 35.17,19.72 "/>
<polygon class="st53" points="30.92,15.48 33.91,17.01 41.74,17.52 35.32,18.07 32.25,16.8 "/>
<polygon class="st43" points="41.74,17.52 44.54,17.01 40.62,19.64 39.11,19.64 35.32,18.07 "/>
<polygon class="st54" points="28.4,12.96 33.64,12.14 31.63,15.84 30.92,15.48 "/>
<polygon class="st2" points="33.15,13.05 39.26,17.36 33.91,17.01 31.63,15.84 "/>
<polygon class="st55" points="36.1,11.76 39.26,17.36 33.15,13.05 33.64,12.14 "/>
<polygon class="st17" points="37.16,13.63 39.48,14.86 45.97,14.1 40.99,16.5 38.04,15.2 "/>
<polygon class="st56" points="38.04,15.2 40.99,16.5 45.97,14.1 47.98,13.41 44.54,17.01 41.74,17.52 39.26,17.36 "/>
<polygon class="st35" points="36.58,11.69 37.43,13.28 40.06,14.56 41.26,14.65 39.48,14.86 37.16,13.63 36.1,11.76 "/>
<polygon class="st2" points="36.58,11.69 42.54,10.75 41.26,14.65 40.06,14.56 37.43,13.28 "/>
<polygon class="st44" points="42.54,10.75 45.97,10.47 41.26,14.65 "/>
<polygon class="st44" points="45.97,10.47 48.33,10.28 45.97,14.1 41.26,14.65 "/>
<polygon class="st57" points="48.33,10.28 49.46,10.19 47.98,13.41 45.97,14.1 "/>
<polygon class="st58" points="18.38,19.63 18.98,23.02 19.56,24.96 19.22,19.29 18.78,19.64 18.8,19.51 "/>
<polygon class="st59" points="19.56,24.96 20.53,25.32 19.22,19.29 "/>
<polygon class="st60" points="20.91,17.48 24.91,25.75 23.59,22.07 21.37,16.81 20.4,16.36 20.36,16.5 "/>
<polygon class="st5" points="20.91,17.48 20.72,18.14 20.47,20.68 21.62,18.94 "/>
<polygon class="st61" points="20.72,18.14 20.27,18.53 19.65,18.94 19.22,19.29 20.53,25.32 20.47,20.68 "/>
<polygon class="st62" points="20.47,20.68 21.15,21.63 21.62,18.94 "/>
<polygon class="st21" points="21.15,21.63 21.27,26.66 20.53,25.32 20.47,20.68 "/>
<polygon class="st63" points="19.56,24.96 20.72,27.2 22.22,28.59 21.27,26.66 20.53,25.32 "/>
<polygon class="st61" points="21.17,22.51 22.68,25.83 23.4,28.9 21.27,26.66 "/>
<polygon class="st64" points="23.4,28.9 25.36,30.03 23.35,29.51 22.22,28.59 21.27,26.66 "/>
<polygon class="st65" points="21.15,21.63 21.62,18.94 22.68,21.14 21.17,22.51 "/>
<polygon class="st66" points="21.17,22.51 22.92,23.24 22.05,21.72 "/>
<polygon class="st67" points="22.92,23.24 24.91,25.75 22.68,21.14 22.05,21.72 "/>
<polygon class="st24" points="25.36,30.03 27.97,30.18 28.86,30.82 26.69,31 24.97,30.46 23.35,29.51 "/>
<path class="st68" d="M24.49,15.03"/>
<path class="st68" d="M21.37,16.81"/>
<polygon class="st69" points="24.76,18.26 28.14,18.99 26.81,16.83 26.08,16.38 24.72,15.84 "/>
<polygon class="st70" points="28.86,30.82 29.3,29.12 24.91,25.75 27.97,30.18 "/>
<polygon class="st43" points="29.3,29.12 29.53,26.8 24.91,25.75 "/>
<polygon class="st71" points="24.76,18.26 28.14,18.99 28.99,20.95 "/>
<polygon class="st72" points="28.99,20.95 29.49,23.45 24.76,18.26 "/>
<polygon class="st73" points="24.76,18.26 24.83,21.55 29.49,23.45 "/>
<polygon class="st74" points="29.49,23.45 29.53,26.8 24.85,22.9 24.83,21.55 "/>
<polygon class="st27" points="24.85,22.9 24.91,25.75 29.53,26.8 "/>
<polygon class="st31" points="16.75,16.51 14.31,16.08 10.48,15.63 13.45,16.58 "/>
<polygon class="st75" points="16.74,16.5 13.45,16.58 10.48,15.63 6.46,17.41 16.71,16.91 "/>
<polygon class="st76" points="15.93,19.08 11.98,23.76 6.46,31.57 12.22,23.92 15.77,19.85 "/>
<polygon class="st77" points="13.59,21.84 13.99,18.26 16.2,17.72 15.93,19.08 "/>
<polygon class="st78" points="13.99,18.26 5.53,18.16 6.46,17.41 16.71,16.91 16.2,17.72 "/>
<polygon class="st79" points="11.58,18.23 9.24,23.34 8.78,28.29 12.06,23.67 13.59,21.84 13.99,18.26 "/>
<polygon class="st80" points="5.53,18.16 3.06,21.84 9.09,18.2 "/>
<polygon class="st47" points="5.04,20.65 9.63,20.2 11.58,18.23 9.09,18.2 "/>
<polygon class="st69" points="9.63,20.2 7.89,23.45 8.21,29.09 8.78,28.29 9.24,23.34 11.58,18.23 "/>
<polygon class="st63" points="9.63,20.2 5.04,20.65 3.06,21.84 2.36,23.66 "/>
<polygon class="st81" points="2.36,23.66 0.93,30.64 3.29,27.15 3.97,22.9 "/>
<polygon class="st23" points="6.46,21.71 5.72,24.85 6.46,31.57 8.21,29.09 7.89,23.45 9.63,20.2 "/>
<polygon class="st82" points="3.97,22.9 3.29,27.15 3.06,37.32 6.46,31.57 5.72,24.85 6.46,21.71 "/>
<polygon class="st83" points="0.93,30.64 1.82,36.67 3.21,30.52 3.29,27.15 "/>
<polygon class="st84" points="1.82,36.67 2.45,38.21 3.06,37.32 3.21,30.52 "/>
<polygon class="st85" points="7.89,29.67 7.81,36.82 3.06,37.32 6.46,31.57 "/>
<polygon class="st59" points="3.06,37.32 2.45,38.21 6.57,37.77 7.81,36.82 "/>
<polygon class="st86" points="9.81,27.12 17.33,19.9 16.49,19.9 15.77,19.85 12.18,23.97 "/>
<polygon class="st79" points="16.85,20.36 18.19,30.76 19.16,28.75 18.04,19.73 17.33,19.9 "/>
<polygon class="st87" points="19.16,28.75 20.12,26.04 19.56,24.96 18.98,23.02 18.38,19.63 18.04,19.73 "/>
<polygon class="st88" points="14.4,22.71 17.54,25.7 16.85,20.36 "/>
<polygon class="st56" points="17.54,25.7 15.18,27.15 14.4,22.71 "/>
<polygon class="st44" points="15.18,27.15 11.98,25.03 14.4,22.71 "/>
<polygon class="st89" points="15.18,27.15 11.67,28.68 11.98,25.03 "/>
<polygon class="st90" points="11.67,28.68 9.81,27.12 11.98,25.03 "/>
<polygon class="st43" points="15.18,27.15 18.19,30.76 17.54,25.7 "/>
<polygon class="st43" points="18.19,30.76 16.49,32.52 15.18,27.15 "/>
<polygon class="st91" points="11.67,28.68 14.16,30.64 15.18,27.15 "/>
<polygon class="st56" points="14.16,30.64 16.49,32.52 15.18,27.15 "/>
<polygon class="st92" points="7.89,29.67 11.67,28.68 9.81,27.12 "/>
<polygon class="st38" points="7.89,29.67 10.43,31.57 11.67,28.68 "/>
<polygon class="st93" points="7.81,36.82 11.77,35.75 6.57,37.77 "/>
<polygon class="st94" points="10.43,31.57 7.84,34.09 7.89,29.67 "/>
<polygon class="st43" points="10.43,31.57 14.16,30.64 11.67,28.68 "/>
<polygon class="st54" points="10.43,31.57 12.63,33.76 14.16,30.64 "/>
<polygon class="st2" points="12.63,33.76 16.49,32.52 14.16,30.64 "/>
<polygon class="st95" points="10.43,31.57 7.84,34.09 12.63,33.76 "/>
<polygon class="st47" points="12.63,33.76 11.77,35.75 7.81,36.82 7.84,34.09 "/>
<polygon class="st96" points="12.63,33.76 16.49,32.52 11.77,35.75 "/>
<path class="st97" d="M16.92,16.36c-0.01,0-1.94-1.06-3.6-1.97c-0.02-0.01-0.04-0.02-0.07-0.04c-1.22-0.67-2.28-1.26-2.28-1.26
	l3.2,2.98l2.57,0.43L16.92,16.36z"/>
<polyline class="st46" points="13.02,14.22 13.18,14.27 17.76,15.69 16.92,16.36 "/>
<polygon class="st98" points="21.54,12.92 20.95,8.44 20.72,13.37 "/>
<polygon class="st22" points="19.56,14.45 18.55,13.8 19.11,14.95 19.79,15.51 "/>
<polygon class="st99" points="18.55,13.8 15.73,13.21 17.76,15.69 18.69,15.03 19.11,14.95 "/>
<polygon class="st100" points="15.73,13.21 11.88,13.59 13.07,14.25 17.76,15.69 "/>
<polygon class="st101" points="15.73,13.21 11.97,11.84 11.88,13.59 "/>
<polygon class="st2" points="15.73,13.21 17.2,12.38 18.55,13.8 "/>
<polygon class="st22" points="17.2,12.38 13.9,8.8 19.76,14.2 19.56,14.45 18.55,13.8 "/>
<polygon class="st102" points="20.76,12.51 15.89,10.64 19.76,14.2 20.12,13.75 20.72,13.37 "/>
<polygon class="st30" points="19.94,12.2 19.9,7.47 20.94,8.47 20.76,12.51 "/>
<polygon class="st103" points="19.9,7.47 18.47,6.06 19.93,10.48 "/>
<polygon class="st79" points="18.47,6.06 18.89,11.79 19.94,12.2 19.93,10.48 "/>
<path class="st104" d="M11.97,11.84c-0.05,0-2.63-1.26-2.63-1.26l1.64,2.51l0.9,0.5L11.97,11.84z"/>
<path class="st68" d="M15.73,13.21"/>
<polygon class="st105" points="13.9,8.8 15.73,13.21 17.2,12.38 "/>
<polygon class="st106" points="13.9,8.8 13.51,12.42 15.73,13.21 "/>
<polygon class="st107" points="13.9,8.82 11.97,11.84 13.51,12.42 "/>
<path class="st108" d="M13.9,8.82c0-0.02-1.36-1.18-1.36-1.18l-0.57,4.21L13.9,8.82z"/>
<path class="st15" d="M12.53,7.64C12.43,7.69,9.18,9.3,9.18,9.3l0.15,1.28l2.63,1.26L12.53,7.64z"/>
<polygon class="st14" points="9.18,9.3 8.57,7.33 12.53,7.64 "/>
<polygon class="st109" points="12.53,7.64 10.55,5.27 8.57,7.33 "/>
<polygon class="st0" points="10.55,5.27 9.34,2.72 8.57,7.33 "/>
<polygon class="st19" points="10.55,5.27 12.43,4.39 9.34,2.72 "/>
<polygon class="st56" points="9.34,2.72 13.9,3.27 12.43,4.39 "/>
<polygon class="st89" points="12.43,4.39 18.47,6.06 13.9,3.27 "/>
<polygon class="st19" points="12.43,4.39 12.53,7.64 10.55,5.27 "/>
<polygon class="st78" points="13.9,8.82 13.95,4.81 12.43,4.39 12.53,7.64 "/>
<polygon class="st110" points="13.9,8.82 17.42,5.77 13.95,4.81 "/>
<polygon class="st11" points="17.42,5.77 17.38,11.21 18.89,11.79 18.47,6.06 "/>
<polygon class="st111" points="17.42,5.77 15.89,7.09 17.38,11.21 "/>
<polygon class="st112" points="15.89,7.09 13.9,8.82 15.89,10.64 17.38,11.21 "/>
<polygon class="st11" points="22.32,16.75 23.19,16.29 23.81,15.84 24.49,15.03 24.41,15.45 24.72,15.84 24.76,18.26 24.83,21.55 
	24.85,22.9 24.91,25.75 21.37,16.81 "/>
<polygon class="st15" points="21.17,22.51 22.92,23.24 24.91,25.75 27.97,30.18 25.36,30.03 23.4,28.9 22.68,25.83 "/>
<g>
	<g>
		<path class="st113" d="M54.84,19.78V2.8h4.21c1.02,0,1.83,0.19,2.44,0.56c0.61,0.37,1.05,0.91,1.33,1.6
			c0.28,0.7,0.42,1.54,0.42,2.54c0,0.9-0.16,1.67-0.47,2.33c-0.31,0.66-0.78,1.16-1.39,1.52c-0.62,0.36-1.38,0.54-2.31,0.54h-1.87
			v7.9H54.84z M57.21,10.18h1.09c0.68,0,1.22-0.08,1.61-0.23c0.39-0.15,0.67-0.42,0.84-0.81c0.17-0.38,0.25-0.93,0.25-1.63
			c0-0.81-0.06-1.43-0.18-1.87c-0.12-0.43-0.37-0.73-0.74-0.9c-0.38-0.17-0.96-0.25-1.76-0.25h-1.11V10.18z"/>
		<path class="st113" d="M68.05,19.95c-0.9,0-1.6-0.18-2.12-0.55c-0.52-0.36-0.88-0.88-1.1-1.55s-0.33-1.46-0.33-2.37v-3.52
			c0-0.91,0.11-1.7,0.33-2.37s0.58-1.19,1.1-1.55c0.52-0.36,1.22-0.55,2.12-0.55c0.89,0,1.6,0.18,2.11,0.55
			c0.51,0.36,0.87,0.88,1.09,1.55c0.22,0.67,0.32,1.46,0.32,2.37v3.52c0,0.91-0.11,1.7-0.32,2.37c-0.22,0.67-0.58,1.19-1.09,1.55
			C69.65,19.77,68.95,19.95,68.05,19.95z M68.05,18.29c0.43,0,0.74-0.13,0.91-0.38c0.17-0.25,0.28-0.58,0.31-1
			c0.03-0.41,0.05-0.84,0.05-1.29v-3.79c0-0.46-0.02-0.89-0.05-1.3c-0.04-0.41-0.14-0.74-0.31-1c-0.17-0.26-0.48-0.39-0.91-0.39
			c-0.43,0-0.74,0.13-0.92,0.39c-0.18,0.26-0.29,0.59-0.32,1c-0.04,0.41-0.05,0.84-0.05,1.3v3.79c0,0.45,0.02,0.88,0.05,1.29
			c0.03,0.41,0.14,0.74,0.32,1S67.62,18.29,68.05,18.29z"/>
		<path class="st113" d="M73.63,19.78V7.66h2.24v1.2c0.41-0.38,0.85-0.7,1.34-0.96c0.49-0.27,1.03-0.4,1.61-0.4
			c0.49,0,0.86,0.13,1.12,0.38c0.26,0.25,0.44,0.57,0.55,0.94c0.1,0.38,0.16,0.76,0.16,1.15v9.81h-2.24v-9.16
			c0-0.43-0.06-0.77-0.19-1.01c-0.13-0.24-0.38-0.36-0.78-0.36c-0.25,0-0.51,0.07-0.79,0.22c-0.27,0.15-0.53,0.32-0.79,0.53v9.77
			H73.63z"/>
		<path class="st113" d="M82.98,5.86V3.51h2.24v2.35H82.98z M82.98,19.78V7.66h2.24v12.12H82.98z"/>
		<path class="st113" d="M90.95,19.95c-0.99,0-1.74-0.2-2.25-0.6c-0.51-0.4-0.85-0.96-1.03-1.69c-0.17-0.73-0.26-1.57-0.26-2.54
			v-2.79c0-1.02,0.09-1.89,0.27-2.61c0.18-0.72,0.53-1.27,1.04-1.66c0.51-0.38,1.25-0.58,2.23-0.58c0.88,0,1.56,0.14,2.04,0.43
			s0.81,0.71,1,1.28c0.18,0.57,0.27,1.27,0.27,2.11v0.71h-2.03v-0.73c0-0.53-0.03-0.95-0.1-1.26c-0.07-0.31-0.2-0.53-0.38-0.67
			c-0.18-0.14-0.44-0.21-0.78-0.21c-0.36,0-0.64,0.08-0.84,0.25c-0.2,0.17-0.32,0.45-0.39,0.85c-0.06,0.4-0.09,0.94-0.09,1.63v3.82
			c0,1.03,0.1,1.73,0.29,2.08c0.2,0.35,0.54,0.52,1.05,0.52c0.38,0,0.65-0.09,0.83-0.26c0.17-0.17,0.29-0.42,0.34-0.74
			c0.05-0.32,0.07-0.69,0.07-1.09v-0.99h2.03v0.84c0,0.81-0.09,1.51-0.28,2.1c-0.19,0.59-0.52,1.03-1.01,1.34
			C92.49,19.8,91.81,19.95,90.95,19.95z"/>
		<path class="st113" d="M99.06,19.95c-0.99,0-1.79-0.31-2.39-0.93c-0.6-0.62-0.94-1.44-1.03-2.46l1.87-0.57
			c0.11,0.77,0.3,1.35,0.57,1.73c0.27,0.38,0.66,0.58,1.17,0.58c0.41,0,0.71-0.12,0.92-0.35c0.21-0.23,0.31-0.54,0.31-0.93
			c0-0.35-0.08-0.66-0.23-0.94c-0.15-0.28-0.41-0.57-0.75-0.86l-2.08-1.78c-0.42-0.36-0.77-0.77-1.06-1.22s-0.43-1.03-0.43-1.74
			c0-0.64,0.13-1.18,0.39-1.63s0.62-0.78,1.09-1.01s1.02-0.35,1.65-0.35c0.96,0,1.7,0.31,2.21,0.93c0.51,0.62,0.8,1.37,0.87,2.25
			l-1.51,0.57c-0.06-0.42-0.14-0.79-0.25-1.1c-0.11-0.31-0.27-0.56-0.46-0.73s-0.45-0.26-0.78-0.26c-0.36,0-0.65,0.12-0.87,0.37
			c-0.22,0.25-0.33,0.53-0.33,0.87c0,0.21,0.05,0.42,0.14,0.62c0.09,0.2,0.25,0.4,0.47,0.6l2.14,1.97c0.29,0.27,0.57,0.55,0.83,0.86
			c0.26,0.31,0.47,0.66,0.64,1.05c0.17,0.39,0.25,0.85,0.25,1.36c0,0.69-0.14,1.26-0.42,1.72c-0.28,0.46-0.67,0.81-1.17,1.04
			C100.32,19.83,99.73,19.95,99.06,19.95z"/>
		<path class="st113" d="M110.95,19.78V4.56h-2.87V2.8h8.03v1.76h-2.79v15.22H110.95z"/>
		<path class="st113" d="M120.91,19.95c-0.95,0-1.68-0.19-2.2-0.56c-0.52-0.37-0.88-0.92-1.08-1.64c-0.2-0.72-0.3-1.6-0.3-2.65
			v-2.77c0-1.08,0.1-1.97,0.31-2.68c0.21-0.71,0.58-1.25,1.1-1.61c0.52-0.36,1.25-0.55,2.17-0.55c1.02,0,1.77,0.21,2.25,0.63
			s0.8,1.02,0.95,1.81c0.15,0.79,0.23,1.74,0.23,2.84v0.99h-4.78v2.43c0,0.49,0.05,0.89,0.14,1.2c0.09,0.31,0.24,0.53,0.44,0.68
			c0.2,0.15,0.46,0.22,0.79,0.22c0.34,0,0.59-0.08,0.77-0.24c0.17-0.16,0.29-0.39,0.36-0.69c0.06-0.3,0.09-0.65,0.09-1.06v-0.73
			h2.18v0.46c0,1.22-0.26,2.17-0.78,2.87C123.04,19.6,122.15,19.95,120.91,19.95z M119.57,12.55h2.58v-1.09
			c0-0.5-0.03-0.93-0.08-1.27c-0.06-0.34-0.17-0.6-0.35-0.78s-0.45-0.26-0.83-0.26c-0.36,0-0.64,0.08-0.83,0.25
			c-0.19,0.17-0.32,0.45-0.39,0.85c-0.07,0.4-0.1,0.95-0.1,1.65V12.55z"/>
		<path class="st113" d="M129.7,19.95c-0.99,0-1.74-0.2-2.25-0.6c-0.51-0.4-0.85-0.96-1.03-1.69c-0.17-0.73-0.26-1.57-0.26-2.54
			v-2.79c0-1.02,0.09-1.89,0.27-2.61c0.18-0.72,0.53-1.27,1.04-1.66c0.51-0.38,1.25-0.58,2.23-0.58c0.88,0,1.56,0.14,2.04,0.43
			c0.48,0.29,0.81,0.71,1,1.28c0.18,0.57,0.27,1.27,0.27,2.11v0.71h-2.03v-0.73c0-0.53-0.04-0.95-0.11-1.26
			c-0.07-0.31-0.2-0.53-0.38-0.67c-0.18-0.14-0.44-0.21-0.78-0.21c-0.36,0-0.64,0.08-0.84,0.25c-0.2,0.17-0.32,0.45-0.39,0.85
			c-0.06,0.4-0.09,0.94-0.09,1.63v3.82c0,1.03,0.1,1.73,0.29,2.08c0.2,0.35,0.54,0.52,1.05,0.52c0.38,0,0.65-0.09,0.83-0.26
			c0.17-0.17,0.29-0.42,0.34-0.74c0.05-0.32,0.07-0.69,0.07-1.09v-0.99h2.03v0.84c0,0.81-0.09,1.51-0.28,2.1
			c-0.19,0.59-0.52,1.03-1.01,1.34C131.24,19.8,130.56,19.95,129.7,19.95z"/>
		<path class="st113" d="M135.06,19.78V2.8h2.24v6.12c0.41-0.39,0.86-0.73,1.36-1.01c0.5-0.28,1.06-0.42,1.68-0.42
			c0.47,0,0.84,0.13,1.1,0.38c0.26,0.25,0.44,0.57,0.54,0.94c0.11,0.38,0.16,0.76,0.16,1.15v9.81h-2.24v-9.16
			c0-0.43-0.06-0.77-0.19-1.01c-0.13-0.24-0.38-0.36-0.78-0.36c-0.27,0-0.54,0.08-0.83,0.23c-0.29,0.15-0.56,0.34-0.81,0.57v9.73
			H135.06z"/>
		<path class="st113" d="M144.33,19.78V7.66h2.24v1.2c0.41-0.38,0.85-0.7,1.34-0.96c0.49-0.27,1.03-0.4,1.61-0.4
			c0.49,0,0.86,0.13,1.12,0.38c0.26,0.25,0.44,0.57,0.54,0.94c0.11,0.38,0.16,0.76,0.16,1.15v9.81h-2.24v-9.16
			c0-0.43-0.06-0.77-0.19-1.01s-0.38-0.36-0.78-0.36c-0.25,0-0.51,0.07-0.79,0.22c-0.27,0.15-0.53,0.32-0.79,0.53v9.77H144.33z"/>
		<path class="st113" d="M156.87,19.95c-0.89,0-1.6-0.18-2.12-0.55c-0.52-0.36-0.88-0.88-1.1-1.55c-0.22-0.67-0.33-1.46-0.33-2.37
			v-3.52c0-0.91,0.11-1.7,0.33-2.37c0.22-0.67,0.58-1.19,1.1-1.55c0.52-0.36,1.22-0.55,2.12-0.55s1.6,0.18,2.11,0.55
			c0.51,0.36,0.87,0.88,1.09,1.55s0.33,1.46,0.33,2.37v3.52c0,0.91-0.11,1.7-0.33,2.37s-0.58,1.19-1.09,1.55
			C158.47,19.77,157.76,19.95,156.87,19.95z M156.87,18.29c0.43,0,0.74-0.13,0.91-0.38s0.28-0.58,0.32-1
			c0.03-0.41,0.05-0.84,0.05-1.29v-3.79c0-0.46-0.02-0.89-0.05-1.3c-0.04-0.41-0.14-0.74-0.32-1c-0.17-0.26-0.48-0.39-0.91-0.39
			c-0.43,0-0.74,0.13-0.92,0.39c-0.18,0.26-0.29,0.59-0.33,1c-0.04,0.41-0.05,0.84-0.05,1.3v3.79c0,0.45,0.02,0.88,0.05,1.29
			c0.03,0.41,0.14,0.74,0.33,1C156.13,18.17,156.44,18.29,156.87,18.29z"/>
		<path class="st113" d="M162.66,19.78V2.8h2.24v16.98H162.66z"/>
		<path class="st113" d="M170.58,19.95c-0.89,0-1.6-0.18-2.12-0.55c-0.52-0.36-0.88-0.88-1.1-1.55c-0.22-0.67-0.33-1.46-0.33-2.37
			v-3.52c0-0.91,0.11-1.7,0.33-2.37c0.22-0.67,0.58-1.19,1.1-1.55c0.52-0.36,1.22-0.55,2.12-0.55s1.6,0.18,2.11,0.55
			c0.51,0.36,0.87,0.88,1.09,1.55s0.33,1.46,0.33,2.37v3.52c0,0.91-0.11,1.7-0.33,2.37s-0.58,1.19-1.09,1.55
			C172.18,19.77,171.48,19.95,170.58,19.95z M170.58,18.29c0.43,0,0.74-0.13,0.91-0.38s0.28-0.58,0.32-1
			c0.03-0.41,0.05-0.84,0.05-1.29v-3.79c0-0.46-0.02-0.89-0.05-1.3c-0.04-0.41-0.14-0.74-0.32-1c-0.17-0.26-0.48-0.39-0.91-0.39
			c-0.43,0-0.74,0.13-0.92,0.39c-0.18,0.26-0.29,0.59-0.33,1c-0.04,0.41-0.05,0.84-0.05,1.3v3.79c0,0.45,0.02,0.88,0.05,1.29
			c0.03,0.41,0.14,0.74,0.33,1C169.84,18.17,170.15,18.29,170.58,18.29z"/>
		<path class="st113" d="M179.31,23.54c-0.73,0-1.38-0.08-1.97-0.23c-0.59-0.15-1.05-0.4-1.38-0.73c-0.34-0.34-0.5-0.78-0.5-1.32
			c0-0.39,0.08-0.73,0.25-1.03s0.38-0.55,0.65-0.77c0.26-0.22,0.54-0.39,0.84-0.53c-0.39-0.11-0.69-0.29-0.88-0.53
			c-0.2-0.24-0.29-0.5-0.29-0.77c0-0.45,0.12-0.83,0.36-1.15c0.24-0.32,0.57-0.67,0.99-1.05c-0.46-0.35-0.81-0.8-1.05-1.34
			c-0.24-0.55-0.36-1.3-0.36-2.26c0-0.95,0.13-1.74,0.39-2.38s0.64-1.12,1.15-1.45c0.51-0.33,1.14-0.49,1.88-0.49
			c0.66,0,1.18,0.11,1.58,0.34s0.7,0.56,0.91,1.01c0.07-0.11,0.26-0.3,0.57-0.58s0.66-0.5,1.07-0.68l0.34-0.15l0.57,1.45
			c-0.18,0.03-0.42,0.09-0.72,0.2c-0.3,0.1-0.58,0.21-0.84,0.31c-0.26,0.1-0.42,0.19-0.49,0.26c0.1,0.24,0.18,0.58,0.26,1.03
			c0.08,0.45,0.12,0.85,0.12,1.2c0,0.82-0.1,1.55-0.31,2.18c-0.21,0.63-0.56,1.12-1.04,1.48s-1.15,0.53-2,0.53
			c-0.18,0-0.38-0.01-0.59-0.04c-0.21-0.03-0.4-0.06-0.57-0.1c-0.08,0.13-0.17,0.27-0.26,0.44c-0.09,0.17-0.14,0.33-0.14,0.48
			s0.08,0.28,0.24,0.37c0.16,0.09,0.42,0.15,0.76,0.18l1.89,0.17c0.95,0.08,1.66,0.37,2.12,0.86c0.46,0.49,0.69,1.19,0.69,2.1
			c0,0.66-0.15,1.21-0.46,1.67c-0.31,0.45-0.77,0.79-1.39,1.02C181.04,23.42,180.26,23.54,179.31,23.54z M179.47,21.77
			c0.8,0,1.38-0.09,1.76-0.28c0.38-0.19,0.57-0.49,0.57-0.91c0-0.25-0.04-0.46-0.14-0.63c-0.09-0.17-0.26-0.3-0.49-0.4
			s-0.58-0.17-1.03-0.21l-1.91-0.17c-0.15,0.15-0.3,0.31-0.44,0.46c-0.14,0.15-0.25,0.32-0.33,0.49c-0.08,0.17-0.13,0.36-0.13,0.56
			c0,0.36,0.15,0.64,0.46,0.82S178.66,21.77,179.47,21.77z M179.37,14.5c0.32,0,0.58-0.06,0.76-0.18c0.19-0.12,0.33-0.29,0.43-0.52
			c0.1-0.23,0.17-0.51,0.2-0.85c0.04-0.34,0.05-0.71,0.05-1.13s-0.02-0.8-0.05-1.14c-0.03-0.34-0.1-0.64-0.19-0.88
			s-0.23-0.43-0.42-0.56c-0.19-0.13-0.44-0.19-0.77-0.19c-0.31,0-0.56,0.06-0.77,0.19c-0.2,0.13-0.35,0.3-0.45,0.53
			c-0.1,0.23-0.17,0.52-0.21,0.86c-0.04,0.34-0.06,0.74-0.06,1.19c0,0.38,0.02,0.73,0.05,1.06c0.04,0.33,0.11,0.61,0.21,0.85
			c0.1,0.24,0.25,0.43,0.45,0.57C178.81,14.43,179.06,14.5,179.37,14.5z"/>
		<path class="st113" d="M185.43,5.86V3.51h2.24v2.35H185.43z M185.43,19.78V7.66h2.24v12.12H185.43z"/>
		<path class="st113" d="M193.44,19.95c-0.95,0-1.68-0.19-2.2-0.56c-0.52-0.37-0.88-0.92-1.08-1.64c-0.2-0.72-0.3-1.6-0.3-2.65
			v-2.77c0-1.08,0.11-1.97,0.31-2.68c0.21-0.71,0.58-1.25,1.1-1.61c0.52-0.36,1.25-0.55,2.17-0.55c1.02,0,1.77,0.21,2.25,0.63
			s0.8,1.02,0.95,1.81c0.15,0.79,0.23,1.74,0.23,2.84v0.99h-4.78v2.43c0,0.49,0.04,0.89,0.14,1.2s0.24,0.53,0.44,0.68
			c0.2,0.15,0.46,0.22,0.79,0.22c0.34,0,0.59-0.08,0.77-0.24c0.17-0.16,0.29-0.39,0.36-0.69c0.06-0.3,0.09-0.65,0.09-1.06v-0.73
			h2.18v0.46c0,1.22-0.26,2.17-0.78,2.87C195.56,19.6,194.68,19.95,193.44,19.95z M192.1,12.55h2.58v-1.09
			c0-0.5-0.03-0.93-0.08-1.27c-0.06-0.34-0.17-0.6-0.35-0.78c-0.18-0.17-0.45-0.26-0.83-0.26c-0.36,0-0.64,0.08-0.83,0.25
			c-0.19,0.17-0.32,0.45-0.39,0.85c-0.07,0.4-0.1,0.95-0.1,1.65V12.55z"/>
		<path class="st113" d="M201.72,19.95c-0.99,0-1.79-0.31-2.39-0.93c-0.6-0.62-0.94-1.44-1.03-2.46l1.87-0.57
			c0.11,0.77,0.3,1.35,0.57,1.73c0.27,0.38,0.66,0.58,1.17,0.58c0.41,0,0.71-0.12,0.92-0.35c0.21-0.23,0.31-0.54,0.31-0.93
			c0-0.35-0.08-0.66-0.23-0.94c-0.15-0.28-0.41-0.57-0.75-0.86l-2.08-1.78c-0.42-0.36-0.77-0.77-1.06-1.22
			c-0.29-0.45-0.43-1.03-0.43-1.74c0-0.64,0.13-1.18,0.39-1.63c0.26-0.44,0.62-0.78,1.09-1.01s1.02-0.35,1.65-0.35
			c0.96,0,1.7,0.31,2.21,0.93c0.51,0.62,0.8,1.37,0.87,2.25l-1.51,0.57c-0.06-0.42-0.14-0.79-0.25-1.1
			c-0.11-0.31-0.27-0.56-0.46-0.73c-0.2-0.17-0.45-0.26-0.78-0.26c-0.36,0-0.65,0.12-0.87,0.37c-0.22,0.25-0.32,0.53-0.32,0.87
			c0,0.21,0.04,0.42,0.14,0.62c0.09,0.2,0.25,0.4,0.47,0.6l2.14,1.97c0.29,0.27,0.57,0.55,0.83,0.86c0.26,0.31,0.47,0.66,0.64,1.05
			c0.17,0.39,0.25,0.85,0.25,1.36c0,0.69-0.14,1.26-0.42,1.72c-0.28,0.46-0.67,0.81-1.17,1.04
			C202.98,19.83,202.39,19.95,201.72,19.95z"/>
		<path class="st114" d="M55.51,34.98c-0.29,0-0.54-0.08-0.75-0.25c-0.22-0.16-0.39-0.37-0.52-0.63c-0.13-0.26-0.19-0.53-0.19-0.81
			c0-0.45,0.08-0.83,0.23-1.15c0.15-0.31,0.36-0.57,0.62-0.79s0.57-0.4,0.92-0.56s0.71-0.31,1.1-0.47v-0.52
			c0-0.29-0.02-0.54-0.05-0.73c-0.03-0.19-0.1-0.34-0.21-0.43c-0.1-0.1-0.26-0.14-0.47-0.14c-0.18,0-0.33,0.04-0.45,0.13
			s-0.2,0.2-0.25,0.36s-0.08,0.34-0.08,0.55v0.36l-1.33-0.05c0.02-0.81,0.2-1.4,0.55-1.78c0.35-0.38,0.9-0.57,1.64-0.57
			c0.72,0,1.23,0.2,1.53,0.59c0.3,0.39,0.45,0.96,0.45,1.71v3.32c0,0.23,0.01,0.45,0.02,0.65c0.01,0.21,0.03,0.41,0.05,0.58
			c0.02,0.18,0.04,0.35,0.06,0.51h-1.23c-0.02-0.13-0.06-0.3-0.09-0.51c-0.04-0.21-0.06-0.39-0.08-0.56
			c-0.08,0.29-0.25,0.55-0.48,0.8C56.26,34.86,55.93,34.98,55.51,34.98z M56.04,33.82c0.13,0,0.26-0.04,0.38-0.11
			c0.12-0.08,0.22-0.16,0.31-0.26s0.16-0.17,0.19-0.23v-2.06c-0.21,0.12-0.41,0.23-0.59,0.35c-0.18,0.12-0.35,0.24-0.48,0.37
			c-0.14,0.13-0.25,0.28-0.33,0.44c-0.08,0.16-0.12,0.35-0.12,0.56c0,0.29,0.05,0.52,0.16,0.69S55.83,33.82,56.04,33.82z"/>
		<path class="st114" d="M59.56,37.27v-9.66h1.35v0.58c0.16-0.18,0.35-0.34,0.58-0.48c0.23-0.13,0.49-0.2,0.81-0.2
			c0.38,0,0.68,0.1,0.9,0.29c0.22,0.2,0.39,0.45,0.5,0.74c0.11,0.3,0.18,0.6,0.21,0.91c0.03,0.31,0.05,0.57,0.05,0.79V32
			c0,0.51-0.05,1-0.15,1.45c-0.1,0.46-0.28,0.83-0.55,1.11c-0.26,0.28-0.64,0.42-1.11,0.42c-0.26,0-0.49-0.07-0.69-0.2
			s-0.38-0.28-0.54-0.45v2.93H59.56z M61.87,33.92c0.23,0,0.4-0.09,0.5-0.26s0.16-0.4,0.19-0.7c0.03-0.29,0.04-0.62,0.04-0.97v-1.76
			c0-0.3-0.02-0.58-0.05-0.84c-0.03-0.26-0.1-0.46-0.21-0.61c-0.11-0.15-0.28-0.23-0.52-0.23c-0.18,0-0.34,0.04-0.5,0.11
			c-0.16,0.08-0.3,0.16-0.42,0.26v4.66c0.13,0.09,0.27,0.17,0.43,0.23C61.49,33.89,61.67,33.92,61.87,33.92z"/>
		<path class="st114" d="M65.17,37.27v-9.66h1.35v0.58c0.16-0.18,0.35-0.34,0.58-0.48c0.23-0.13,0.49-0.2,0.81-0.2
			c0.38,0,0.68,0.1,0.9,0.29c0.22,0.2,0.39,0.45,0.5,0.74c0.11,0.3,0.18,0.6,0.21,0.91c0.03,0.31,0.05,0.57,0.05,0.79V32
			c0,0.51-0.05,1-0.15,1.45c-0.1,0.46-0.28,0.83-0.55,1.11c-0.26,0.28-0.64,0.42-1.11,0.42c-0.26,0-0.49-0.07-0.69-0.2
			s-0.38-0.28-0.54-0.45v2.93H65.17z M67.48,33.92c0.23,0,0.4-0.09,0.5-0.26s0.16-0.4,0.19-0.7c0.03-0.29,0.04-0.62,0.04-0.97v-1.76
			c0-0.3-0.02-0.58-0.05-0.84c-0.03-0.26-0.1-0.46-0.21-0.61c-0.11-0.15-0.28-0.23-0.52-0.23c-0.18,0-0.34,0.04-0.5,0.11
			c-0.16,0.08-0.3,0.16-0.42,0.26v4.66c0.13,0.09,0.27,0.17,0.43,0.23C67.1,33.89,67.28,33.92,67.48,33.92z"/>
		<path class="st114" d="M70.91,34.88V24.69h1.35v10.19H70.91z"/>
		<path class="st114" d="M73.75,26.53v-1.41h1.35v1.41H73.75z M73.75,34.88v-7.27h1.35v7.27H73.75z"/>
		<path class="st114" d="M78.56,34.98c-0.57,0-1.01-0.11-1.32-0.33c-0.31-0.22-0.53-0.55-0.65-0.98c-0.12-0.43-0.18-0.96-0.18-1.59
			v-1.66c0-0.65,0.06-1.18,0.19-1.61c0.13-0.43,0.35-0.75,0.66-0.97c0.31-0.22,0.75-0.33,1.3-0.33c0.61,0,1.06,0.13,1.35,0.38
			c0.29,0.25,0.48,0.61,0.57,1.09c0.09,0.47,0.14,1.04,0.14,1.71v0.59h-2.87v1.46c0,0.29,0.03,0.53,0.08,0.72
			c0.05,0.18,0.14,0.32,0.26,0.41s0.28,0.13,0.47,0.13c0.2,0,0.35-0.05,0.46-0.14c0.1-0.1,0.18-0.23,0.21-0.42s0.06-0.39,0.06-0.64
			v-0.44h1.31v0.28c0,0.73-0.16,1.3-0.47,1.72C79.83,34.77,79.3,34.98,78.56,34.98z M77.75,30.54h1.55v-0.65
			c0-0.3-0.02-0.55-0.05-0.76c-0.03-0.21-0.1-0.36-0.21-0.47c-0.1-0.1-0.27-0.16-0.5-0.16c-0.22,0-0.38,0.05-0.5,0.15
			s-0.19,0.27-0.23,0.51c-0.04,0.24-0.06,0.57-0.06,0.99V30.54z"/>
		<path class="st114" d="M83.52,34.98c-0.61,0-1.07-0.22-1.37-0.67c-0.3-0.45-0.45-1.21-0.45-2.28v-1.41c0-0.55,0.05-1.07,0.14-1.54
			c0.09-0.47,0.27-0.85,0.52-1.14c0.26-0.29,0.63-0.43,1.13-0.43c0.24,0,0.47,0.05,0.67,0.16c0.2,0.11,0.38,0.24,0.54,0.4v-3.38
			h1.35v10.19h-1.35v-0.47c-0.16,0.17-0.33,0.3-0.52,0.41C83.98,34.93,83.77,34.98,83.52,34.98z M83.86,33.92
			c0.13,0,0.26-0.02,0.4-0.07s0.29-0.12,0.43-0.21v-4.77c-0.12-0.08-0.25-0.16-0.39-0.22c-0.14-0.06-0.3-0.09-0.47-0.09
			c-0.31,0-0.52,0.15-0.63,0.45c-0.11,0.3-0.16,0.66-0.16,1.08v2.05c0,0.33,0.02,0.64,0.06,0.91s0.12,0.49,0.23,0.64
			C83.45,33.85,83.63,33.92,83.86,33.92z"/>
		<path class="st114" d="M91.59,34.98c-0.29,0-0.54-0.08-0.75-0.25c-0.22-0.16-0.39-0.37-0.52-0.63c-0.13-0.26-0.19-0.53-0.19-0.81
			c0-0.45,0.08-0.83,0.23-1.15c0.15-0.31,0.36-0.57,0.62-0.79s0.57-0.4,0.92-0.56s0.71-0.31,1.1-0.47v-0.52
			c0-0.29-0.02-0.54-0.05-0.73c-0.03-0.19-0.1-0.34-0.21-0.43c-0.1-0.1-0.26-0.14-0.47-0.14c-0.18,0-0.33,0.04-0.45,0.13
			s-0.2,0.2-0.25,0.36s-0.08,0.34-0.08,0.55v0.36l-1.33-0.05c0.02-0.81,0.2-1.4,0.55-1.78c0.35-0.38,0.9-0.57,1.64-0.57
			c0.72,0,1.23,0.2,1.53,0.59c0.3,0.39,0.45,0.96,0.45,1.71v3.32c0,0.23,0.01,0.45,0.02,0.65c0.01,0.21,0.03,0.41,0.05,0.58
			c0.02,0.18,0.04,0.35,0.06,0.51h-1.23c-0.02-0.13-0.06-0.3-0.09-0.51c-0.04-0.21-0.06-0.39-0.08-0.56
			c-0.08,0.29-0.25,0.55-0.48,0.8C92.34,34.86,92.01,34.98,91.59,34.98z M92.12,33.82c0.13,0,0.26-0.04,0.38-0.11
			c0.12-0.08,0.22-0.16,0.31-0.26s0.16-0.17,0.19-0.23v-2.06c-0.21,0.12-0.41,0.23-0.59,0.35c-0.18,0.12-0.35,0.24-0.48,0.37
			c-0.14,0.13-0.25,0.28-0.33,0.44c-0.08,0.16-0.12,0.35-0.12,0.56c0,0.29,0.05,0.52,0.16,0.69S91.91,33.82,92.12,33.82z"/>
		<path class="st114" d="M97.65,34.98c-0.57,0-1.01-0.11-1.32-0.33c-0.31-0.22-0.53-0.55-0.65-0.98c-0.12-0.43-0.18-0.96-0.18-1.59
			v-1.66c0-0.65,0.06-1.18,0.19-1.61c0.13-0.43,0.35-0.75,0.66-0.97c0.31-0.22,0.75-0.33,1.3-0.33c0.61,0,1.06,0.13,1.35,0.38
			c0.29,0.25,0.48,0.61,0.57,1.09c0.09,0.47,0.14,1.04,0.14,1.71v0.59h-2.87v1.46c0,0.29,0.03,0.53,0.08,0.72
			c0.05,0.18,0.14,0.32,0.26,0.41s0.28,0.13,0.47,0.13c0.2,0,0.35-0.05,0.46-0.14c0.1-0.1,0.18-0.23,0.21-0.42s0.06-0.39,0.06-0.64
			v-0.44h1.31v0.28c0,0.73-0.16,1.3-0.47,1.72C98.93,34.77,98.4,34.98,97.65,34.98z M96.85,30.54h1.55v-0.65
			c0-0.3-0.02-0.55-0.05-0.76c-0.03-0.21-0.1-0.36-0.21-0.47c-0.1-0.1-0.27-0.16-0.5-0.16c-0.22,0-0.38,0.05-0.5,0.15
			s-0.19,0.27-0.23,0.51c-0.04,0.24-0.06,0.57-0.06,0.99V30.54z"/>
		<path class="st114" d="M100.97,34.88v-7.27h1.35v1.03c0.27-0.44,0.54-0.74,0.81-0.89c0.27-0.15,0.54-0.23,0.81-0.23
			c0.03,0,0.06,0,0.09,0c0.03,0,0.07,0,0.12,0.01v1.49c-0.1-0.04-0.22-0.08-0.35-0.11s-0.26-0.04-0.4-0.04
			c-0.21,0-0.4,0.05-0.57,0.14c-0.17,0.1-0.34,0.28-0.51,0.56v5.31H100.97z"/>
		<path class="st114" d="M106.98,34.98c-0.54,0-0.96-0.11-1.27-0.33c-0.31-0.22-0.53-0.53-0.66-0.93s-0.19-0.88-0.19-1.42v-2.11
			c0-0.55,0.06-1.02,0.19-1.42s0.35-0.71,0.66-0.93c0.31-0.22,0.73-0.33,1.27-0.33s0.96,0.11,1.26,0.33
			c0.31,0.22,0.52,0.53,0.65,0.93s0.2,0.88,0.2,1.42v2.11c0,0.54-0.07,1.02-0.2,1.42s-0.35,0.71-0.65,0.93
			C107.93,34.87,107.51,34.98,106.98,34.98z M106.98,33.99c0.26,0,0.44-0.08,0.55-0.23c0.1-0.15,0.17-0.35,0.19-0.6
			c0.02-0.25,0.03-0.5,0.03-0.77v-2.28c0-0.28-0.01-0.54-0.03-0.78s-0.08-0.44-0.19-0.6c-0.1-0.16-0.29-0.23-0.55-0.23
			c-0.26,0-0.44,0.08-0.55,0.23s-0.17,0.35-0.19,0.6s-0.03,0.5-0.03,0.78v2.28c0,0.27,0.01,0.53,0.03,0.77
			c0.02,0.25,0.09,0.45,0.19,0.6C106.53,33.91,106.71,33.99,106.98,33.99z"/>
		<path class="st114" d="M110.32,37.27v-9.66h1.35v0.58c0.16-0.18,0.35-0.34,0.58-0.48c0.23-0.13,0.49-0.2,0.81-0.2
			c0.38,0,0.68,0.1,0.9,0.29c0.22,0.2,0.39,0.45,0.5,0.74c0.11,0.3,0.18,0.6,0.21,0.91c0.03,0.31,0.05,0.57,0.05,0.79V32
			c0,0.51-0.05,1-0.15,1.45c-0.1,0.46-0.28,0.83-0.55,1.11c-0.26,0.28-0.64,0.42-1.11,0.42c-0.26,0-0.49-0.07-0.69-0.2
			s-0.38-0.28-0.54-0.45v2.93H110.32z M112.64,33.92c0.23,0,0.4-0.09,0.5-0.26s0.16-0.4,0.19-0.7c0.03-0.29,0.04-0.62,0.04-0.97
			v-1.76c0-0.3-0.02-0.58-0.05-0.84c-0.03-0.26-0.1-0.46-0.21-0.61c-0.11-0.15-0.28-0.23-0.52-0.23c-0.18,0-0.34,0.04-0.5,0.11
			c-0.16,0.08-0.3,0.16-0.42,0.26v4.66c0.13,0.09,0.27,0.17,0.43,0.23C112.25,33.89,112.44,33.92,112.64,33.92z"/>
		<path class="st114" d="M117.93,34.98c-0.54,0-0.96-0.11-1.27-0.33c-0.31-0.22-0.53-0.53-0.66-0.93s-0.19-0.88-0.19-1.42v-2.11
			c0-0.55,0.06-1.02,0.19-1.42s0.35-0.71,0.66-0.93c0.31-0.22,0.73-0.33,1.27-0.33s0.96,0.11,1.26,0.33
			c0.31,0.22,0.52,0.53,0.65,0.93s0.2,0.88,0.2,1.42v2.11c0,0.54-0.07,1.02-0.2,1.42s-0.35,0.71-0.65,0.93
			C118.89,34.87,118.47,34.98,117.93,34.98z M117.93,33.99c0.26,0,0.44-0.08,0.55-0.23c0.1-0.15,0.17-0.35,0.19-0.6
			c0.02-0.25,0.03-0.5,0.03-0.77v-2.28c0-0.28-0.01-0.54-0.03-0.78s-0.08-0.44-0.19-0.6c-0.1-0.16-0.29-0.23-0.55-0.23
			c-0.26,0-0.44,0.08-0.55,0.23s-0.17,0.35-0.19,0.6s-0.03,0.5-0.03,0.78v2.28c0,0.27,0.01,0.53,0.03,0.77
			c0.02,0.25,0.09,0.45,0.19,0.6C117.49,33.91,117.67,33.99,117.93,33.99z"/>
		<path class="st114" d="M121.28,34.88v-7.27h1.35v0.72c0.24-0.23,0.51-0.42,0.81-0.58c0.29-0.16,0.62-0.24,0.97-0.24
			c0.29,0,0.52,0.08,0.67,0.23c0.15,0.15,0.26,0.34,0.33,0.57c0.06,0.23,0.09,0.46,0.09,0.69v5.89h-1.35v-5.5
			c0-0.26-0.04-0.46-0.11-0.6s-0.23-0.21-0.47-0.21c-0.15,0-0.31,0.04-0.47,0.13c-0.16,0.09-0.32,0.2-0.47,0.32v5.86H121.28z"/>
		<path class="st114" d="M126.89,26.53v-1.41h1.35v1.41H126.89z M126.89,34.88v-7.27h1.35v7.27H126.89z"/>
		<path class="st114" d="M131.67,34.98c-0.6,0-1.05-0.12-1.35-0.36c-0.31-0.24-0.51-0.58-0.62-1.01s-0.16-0.94-0.16-1.52v-1.67
			c0-0.61,0.05-1.13,0.16-1.57c0.11-0.43,0.32-0.76,0.62-0.99c0.31-0.23,0.75-0.35,1.34-0.35c0.53,0,0.94,0.09,1.23,0.26
			c0.29,0.17,0.49,0.43,0.6,0.77c0.11,0.34,0.16,0.76,0.16,1.26v0.43h-1.22v-0.44c0-0.32-0.02-0.57-0.06-0.75
			c-0.04-0.18-0.12-0.32-0.23-0.4c-0.11-0.08-0.26-0.13-0.47-0.13c-0.22,0-0.39,0.05-0.5,0.15c-0.12,0.1-0.2,0.27-0.23,0.51
			c-0.04,0.24-0.06,0.56-0.06,0.97v2.29c0,0.62,0.06,1.04,0.18,1.25c0.12,0.21,0.33,0.31,0.63,0.31c0.23,0,0.39-0.05,0.5-0.16
			c0.1-0.1,0.17-0.25,0.2-0.45s0.04-0.41,0.04-0.65v-0.59h1.22v0.5c0,0.49-0.06,0.91-0.17,1.26s-0.31,0.62-0.6,0.81
			C132.6,34.89,132.19,34.98,131.67,34.98z"/>
		<path class="st114" d="M136.54,34.98c-0.6,0-1.07-0.19-1.43-0.56c-0.36-0.37-0.57-0.87-0.62-1.48l1.12-0.34
			c0.07,0.46,0.18,0.81,0.34,1.04c0.16,0.23,0.39,0.35,0.71,0.35c0.24,0,0.43-0.07,0.55-0.21c0.13-0.14,0.19-0.33,0.19-0.56
			c0-0.21-0.05-0.4-0.14-0.57c-0.09-0.17-0.24-0.34-0.45-0.52l-1.25-1.07c-0.25-0.22-0.46-0.46-0.63-0.73
			c-0.17-0.27-0.26-0.62-0.26-1.04c0-0.39,0.08-0.71,0.23-0.97c0.16-0.26,0.37-0.47,0.65-0.6c0.28-0.14,0.61-0.21,0.99-0.21
			c0.58,0,1.02,0.19,1.33,0.56c0.31,0.37,0.48,0.82,0.52,1.35l-0.91,0.34c-0.03-0.25-0.08-0.47-0.15-0.66
			c-0.07-0.19-0.16-0.33-0.28-0.44c-0.12-0.1-0.27-0.16-0.46-0.16c-0.22,0-0.39,0.07-0.52,0.22s-0.2,0.32-0.2,0.52
			c0,0.13,0.03,0.25,0.08,0.37c0.05,0.12,0.15,0.24,0.28,0.36l1.28,1.18c0.18,0.16,0.34,0.33,0.5,0.52s0.28,0.39,0.38,0.63
			c0.1,0.24,0.15,0.51,0.15,0.82c0,0.41-0.08,0.75-0.25,1.03c-0.17,0.28-0.4,0.48-0.71,0.62C137.29,34.91,136.94,34.98,136.54,34.98
			z"/>
		<path class="st114" d="M143.75,34.98c-0.29,0-0.54-0.08-0.75-0.25c-0.22-0.16-0.39-0.37-0.52-0.63s-0.19-0.53-0.19-0.81
			c0-0.45,0.08-0.83,0.23-1.15c0.15-0.31,0.36-0.57,0.62-0.79c0.26-0.21,0.57-0.4,0.92-0.56s0.71-0.31,1.1-0.47v-0.52
			c0-0.29-0.02-0.54-0.05-0.73c-0.03-0.19-0.1-0.34-0.21-0.43c-0.1-0.1-0.26-0.14-0.47-0.14c-0.18,0-0.33,0.04-0.45,0.13
			s-0.2,0.2-0.25,0.36c-0.05,0.16-0.08,0.34-0.08,0.55v0.36l-1.33-0.05c0.02-0.81,0.2-1.4,0.55-1.78c0.35-0.38,0.9-0.57,1.63-0.57
			c0.72,0,1.23,0.2,1.54,0.59c0.3,0.39,0.45,0.96,0.45,1.71v3.32c0,0.23,0.01,0.45,0.02,0.65c0.01,0.21,0.03,0.41,0.05,0.58
			c0.02,0.18,0.04,0.35,0.06,0.51h-1.23c-0.03-0.13-0.06-0.3-0.09-0.51c-0.04-0.21-0.07-0.39-0.08-0.56
			c-0.08,0.29-0.25,0.55-0.48,0.8S144.17,34.98,143.75,34.98z M144.28,33.82c0.13,0,0.26-0.04,0.38-0.11s0.22-0.16,0.31-0.26
			c0.09-0.1,0.16-0.17,0.19-0.23v-2.06c-0.21,0.12-0.41,0.23-0.59,0.35c-0.18,0.12-0.35,0.24-0.48,0.37
			c-0.14,0.13-0.25,0.28-0.33,0.44c-0.08,0.16-0.12,0.35-0.12,0.56c0,0.29,0.05,0.52,0.16,0.69S144.07,33.82,144.28,33.82z"/>
		<path class="st114" d="M147.8,34.88v-7.27h1.35v0.72c0.24-0.23,0.51-0.42,0.81-0.58c0.29-0.16,0.62-0.24,0.97-0.24
			c0.29,0,0.52,0.08,0.67,0.23c0.16,0.15,0.26,0.34,0.33,0.57c0.06,0.23,0.09,0.46,0.09,0.69v5.89h-1.35v-5.5
			c0-0.26-0.04-0.46-0.11-0.6s-0.23-0.21-0.47-0.21c-0.15,0-0.31,0.04-0.47,0.13c-0.16,0.09-0.32,0.2-0.47,0.32v5.86H147.8z"/>
		<path class="st114" d="M155.01,34.98c-0.61,0-1.07-0.22-1.37-0.67c-0.3-0.45-0.45-1.21-0.45-2.28v-1.41
			c0-0.55,0.05-1.07,0.14-1.54c0.09-0.47,0.27-0.85,0.52-1.14s0.63-0.43,1.13-0.43c0.24,0,0.47,0.05,0.67,0.16
			c0.2,0.11,0.38,0.24,0.54,0.4v-3.38h1.35v10.19h-1.35v-0.47c-0.16,0.17-0.33,0.3-0.52,0.41
			C155.47,34.93,155.25,34.98,155.01,34.98z M155.35,33.92c0.13,0,0.26-0.02,0.4-0.07s0.29-0.12,0.43-0.21v-4.77
			c-0.12-0.08-0.25-0.16-0.39-0.22c-0.14-0.06-0.3-0.09-0.47-0.09c-0.31,0-0.52,0.15-0.63,0.45c-0.11,0.3-0.16,0.66-0.16,1.08v2.05
			c0,0.33,0.02,0.64,0.06,0.91c0.04,0.27,0.12,0.49,0.23,0.64C154.94,33.85,155.11,33.92,155.35,33.92z"/>
		<path class="st114" d="M161.8,34.88V24.69h1.35v3.67c0.24-0.24,0.52-0.44,0.82-0.6c0.3-0.17,0.64-0.25,1.01-0.25
			c0.29,0,0.5,0.08,0.66,0.23c0.16,0.15,0.26,0.34,0.33,0.57c0.06,0.23,0.09,0.46,0.09,0.69v5.89h-1.35v-5.5
			c0-0.26-0.04-0.46-0.11-0.6c-0.08-0.14-0.23-0.21-0.46-0.21c-0.16,0-0.33,0.05-0.5,0.14c-0.17,0.09-0.33,0.21-0.48,0.34v5.84
			H161.8z"/>
		<path class="st114" d="M167.25,36.7v-1.03c0.33,0,0.59-0.01,0.78-0.04c0.19-0.03,0.33-0.08,0.42-0.16
			c0.08-0.08,0.13-0.19,0.13-0.33c0-0.08-0.03-0.24-0.09-0.5s-0.12-0.54-0.19-0.83l-1.46-6.19h1.36l0.98,5.43l0.94-5.43h1.36
			l-1.74,7.67c-0.08,0.35-0.21,0.63-0.42,0.84c-0.2,0.21-0.46,0.35-0.77,0.45c-0.31,0.09-0.69,0.14-1.14,0.14H167.25z"/>
		<path class="st114" d="M173.98,34.98c-0.61,0-1.07-0.22-1.37-0.67c-0.3-0.45-0.45-1.21-0.45-2.28v-1.41
			c0-0.55,0.05-1.07,0.14-1.54c0.09-0.47,0.27-0.85,0.52-1.14s0.63-0.43,1.13-0.43c0.24,0,0.47,0.05,0.67,0.16
			c0.2,0.11,0.38,0.24,0.54,0.4v-3.38h1.35v10.19h-1.35v-0.47c-0.16,0.17-0.33,0.3-0.52,0.41
			C174.44,34.93,174.22,34.98,173.98,34.98z M174.32,33.92c0.13,0,0.26-0.02,0.4-0.07s0.29-0.12,0.43-0.21v-4.77
			c-0.12-0.08-0.25-0.16-0.39-0.22c-0.14-0.06-0.3-0.09-0.47-0.09c-0.31,0-0.52,0.15-0.63,0.45c-0.11,0.3-0.16,0.66-0.16,1.08v2.05
			c0,0.33,0.02,0.64,0.06,0.91c0.04,0.27,0.12,0.49,0.23,0.64C173.91,33.85,174.08,33.92,174.32,33.92z"/>
		<path class="st114" d="M177.89,34.88v-7.27h1.35v1.03c0.27-0.44,0.54-0.74,0.8-0.89c0.27-0.15,0.54-0.23,0.81-0.23
			c0.03,0,0.06,0,0.09,0s0.07,0,0.12,0.01v1.49c-0.1-0.04-0.22-0.08-0.35-0.11c-0.13-0.03-0.26-0.04-0.4-0.04
			c-0.21,0-0.4,0.05-0.57,0.14c-0.17,0.1-0.34,0.28-0.51,0.56v5.31H177.89z"/>
		<path class="st114" d="M183.89,34.98c-0.54,0-0.96-0.11-1.27-0.33c-0.31-0.22-0.53-0.53-0.66-0.93c-0.13-0.4-0.2-0.88-0.2-1.42
			v-2.11c0-0.55,0.06-1.02,0.2-1.42c0.13-0.4,0.35-0.71,0.66-0.93c0.31-0.22,0.73-0.33,1.27-0.33s0.96,0.11,1.26,0.33
			c0.31,0.22,0.52,0.53,0.65,0.93c0.13,0.4,0.19,0.88,0.19,1.42v2.11c0,0.54-0.06,1.02-0.19,1.42c-0.13,0.4-0.35,0.71-0.65,0.93
			C184.85,34.87,184.43,34.98,183.89,34.98z M183.89,33.99c0.26,0,0.44-0.08,0.55-0.23c0.11-0.15,0.17-0.35,0.19-0.6
			c0.02-0.25,0.03-0.5,0.03-0.77v-2.28c0-0.28-0.01-0.54-0.03-0.78c-0.02-0.24-0.08-0.44-0.19-0.6c-0.1-0.16-0.29-0.23-0.55-0.23
			s-0.44,0.08-0.55,0.23s-0.17,0.35-0.19,0.6c-0.02,0.24-0.03,0.5-0.03,0.78v2.28c0,0.27,0.01,0.53,0.03,0.77
			c0.02,0.25,0.08,0.45,0.19,0.6C183.45,33.91,183.63,33.99,183.89,33.99z"/>
		<path class="st114" d="M187.24,37.27v-9.66h1.35v0.58c0.16-0.18,0.35-0.34,0.58-0.48c0.23-0.13,0.49-0.2,0.8-0.2
			c0.38,0,0.68,0.1,0.9,0.29c0.22,0.2,0.39,0.45,0.5,0.74c0.11,0.3,0.18,0.6,0.21,0.91c0.03,0.31,0.05,0.57,0.05,0.79V32
			c0,0.51-0.05,1-0.15,1.45s-0.28,0.83-0.55,1.11c-0.26,0.28-0.64,0.42-1.11,0.42c-0.26,0-0.49-0.07-0.69-0.2s-0.38-0.28-0.54-0.45
			v2.93H187.24z M189.55,33.92c0.23,0,0.4-0.09,0.5-0.26c0.1-0.17,0.16-0.4,0.19-0.7c0.02-0.29,0.04-0.62,0.04-0.97v-1.76
			c0-0.3-0.02-0.58-0.05-0.84c-0.03-0.26-0.11-0.46-0.21-0.61c-0.11-0.15-0.28-0.23-0.52-0.23c-0.18,0-0.34,0.04-0.5,0.11
			c-0.16,0.08-0.3,0.16-0.42,0.26v4.66c0.13,0.09,0.27,0.17,0.43,0.23C189.17,33.89,189.35,33.92,189.55,33.92z"/>
		<path class="st114" d="M194.85,34.98c-0.54,0-0.96-0.11-1.27-0.33c-0.31-0.22-0.53-0.53-0.66-0.93c-0.13-0.4-0.2-0.88-0.2-1.42
			v-2.11c0-0.55,0.06-1.02,0.2-1.42c0.13-0.4,0.35-0.71,0.66-0.93c0.31-0.22,0.73-0.33,1.27-0.33s0.96,0.11,1.26,0.33
			c0.31,0.22,0.52,0.53,0.65,0.93c0.13,0.4,0.19,0.88,0.19,1.42v2.11c0,0.54-0.06,1.02-0.19,1.42c-0.13,0.4-0.35,0.71-0.65,0.93
			C195.81,34.87,195.39,34.98,194.85,34.98z M194.85,33.99c0.26,0,0.44-0.08,0.55-0.23c0.11-0.15,0.17-0.35,0.19-0.6
			c0.02-0.25,0.03-0.5,0.03-0.77v-2.28c0-0.28-0.01-0.54-0.03-0.78c-0.02-0.24-0.08-0.44-0.19-0.6c-0.1-0.16-0.29-0.23-0.55-0.23
			s-0.44,0.08-0.55,0.23s-0.17,0.35-0.19,0.6c-0.02,0.24-0.03,0.5-0.03,0.78v2.28c0,0.27,0.01,0.53,0.03,0.77
			c0.02,0.25,0.08,0.45,0.19,0.6C194.41,33.91,194.59,33.99,194.85,33.99z"/>
		<path class="st114" d="M198.2,34.88v-7.27h1.35v0.72c0.24-0.23,0.51-0.42,0.81-0.58c0.29-0.16,0.62-0.24,0.97-0.24
			c0.29,0,0.52,0.08,0.67,0.23c0.16,0.15,0.26,0.34,0.33,0.57c0.06,0.23,0.09,0.46,0.09,0.69v5.89h-1.35v-5.5
			c0-0.26-0.04-0.46-0.11-0.6s-0.23-0.21-0.47-0.21c-0.15,0-0.31,0.04-0.47,0.13c-0.16,0.09-0.32,0.2-0.47,0.32v5.86H198.2z"/>
		<path class="st114" d="M203.81,26.53v-1.41h1.35v1.41H203.81z M203.81,34.88v-7.27h1.35v7.27H203.81z"/>
		<path class="st114" d="M208.59,34.98c-0.6,0-1.05-0.12-1.35-0.36c-0.31-0.24-0.51-0.58-0.62-1.01s-0.16-0.94-0.16-1.52v-1.67
			c0-0.61,0.05-1.13,0.16-1.57c0.11-0.43,0.32-0.76,0.62-0.99c0.31-0.23,0.75-0.35,1.34-0.35c0.53,0,0.94,0.09,1.23,0.26
			c0.29,0.17,0.49,0.43,0.6,0.77c0.11,0.34,0.16,0.76,0.16,1.26v0.43h-1.22v-0.44c0-0.32-0.02-0.57-0.06-0.75
			c-0.04-0.18-0.12-0.32-0.23-0.4c-0.11-0.08-0.26-0.13-0.47-0.13c-0.22,0-0.39,0.05-0.5,0.15c-0.12,0.1-0.2,0.27-0.23,0.51
			c-0.04,0.24-0.06,0.56-0.06,0.97v2.29c0,0.62,0.06,1.04,0.18,1.25c0.12,0.21,0.33,0.31,0.63,0.31c0.23,0,0.39-0.05,0.5-0.16
			c0.1-0.1,0.17-0.25,0.2-0.45s0.04-0.41,0.04-0.65v-0.59h1.22v0.5c0,0.49-0.06,0.91-0.17,1.26s-0.31,0.62-0.6,0.81
			C209.51,34.89,209.11,34.98,208.59,34.98z"/>
		<path class="st114" d="M213.46,34.98c-0.6,0-1.07-0.19-1.43-0.56c-0.36-0.37-0.57-0.87-0.62-1.48l1.12-0.34
			c0.07,0.46,0.18,0.81,0.34,1.04c0.16,0.23,0.39,0.35,0.71,0.35c0.24,0,0.43-0.07,0.55-0.21c0.13-0.14,0.19-0.33,0.19-0.56
			c0-0.21-0.05-0.4-0.14-0.57c-0.09-0.17-0.24-0.34-0.45-0.52l-1.25-1.07c-0.25-0.22-0.46-0.46-0.63-0.73
			c-0.17-0.27-0.26-0.62-0.26-1.04c0-0.39,0.08-0.71,0.23-0.97c0.16-0.26,0.37-0.47,0.65-0.6c0.28-0.14,0.61-0.21,0.99-0.21
			c0.58,0,1.02,0.19,1.33,0.56c0.31,0.37,0.48,0.82,0.52,1.35l-0.91,0.34c-0.03-0.25-0.08-0.47-0.15-0.66
			c-0.07-0.19-0.16-0.33-0.28-0.44c-0.12-0.1-0.27-0.16-0.46-0.16c-0.22,0-0.39,0.07-0.52,0.22s-0.2,0.32-0.2,0.52
			c0,0.13,0.03,0.25,0.08,0.37c0.05,0.12,0.15,0.24,0.28,0.36l1.28,1.18c0.18,0.16,0.34,0.33,0.5,0.52s0.28,0.39,0.38,0.63
			c0.1,0.24,0.15,0.51,0.15,0.82c0,0.41-0.08,0.75-0.25,1.03c-0.17,0.28-0.4,0.48-0.71,0.62C214.21,34.91,213.86,34.98,213.46,34.98
			z"/>
	</g>
</g>
</svg>
