<?xml version="1.0" standalone="no"?>
<!DOCTYPE svg PUBLIC "-//W3C//DTD SVG 20010904//EN"
 "http://www.w3.org/TR/2001/REC-SVG-20010904/DTD/svg10.dtd">
<svg version="1.0" xmlns="http://www.w3.org/2000/svg"
 width="512.000000pt" height="512.000000pt" viewBox="0 0 512.000000 512.000000"
 preserveAspectRatio="xMidYMid meet">
<metadata>
Created by potrace 1.11, written by Peter Selinger 2001-2013
</metadata>
<g transform="translate(0.000000,512.000000) scale(0.100000,-0.100000)"
fill="#000000" stroke="none">
<path d="M945 4178 c-2 -7 -20 -113 -40 -235 l-36 -221 30 -97 c17 -53 36
-128 41 -168 10 -66 17 -82 92 -195 80 -121 118 -161 383 -403 25 -24 49 -31
154 -49 68 -11 130 -19 137 -16 7 3 16 1 19 -4 4 -6 -65 -10 -182 -10 l-188 0
-146 46 -145 45 -190 -83 c-185 -81 -188 -83 -149 -89 38 -6 38 -6 -14 -8 -89
-2 -130 -41 -281 -266 -166 -249 -177 -277 -270 -732 l-72 -353 46 -308 c38
-258 51 -321 78 -386 l31 -78 36 5 c20 3 113 14 206 23 l170 17 245 95 c135
52 259 101 275 110 40 20 455 305 451 309 -1 2 -79 -21 -172 -51 -92 -30 -170
-53 -172 -52 -2 2 31 71 72 154 58 115 87 191 126 322 28 94 50 175 48 179 -2
5 -76 -23 -166 -62 -89 -39 -161 -74 -160 -78 2 -4 50 -44 108 -89 117 -92
126 -100 118 -100 -3 0 -56 40 -119 90 -63 49 -116 90 -119 90 -3 0 -31 -59
-63 -132 -43 -99 -54 -134 -45 -140 9 -5 7 -8 -6 -8 -10 0 -76 43 -147 95 -72
53 -135 93 -140 89 -6 -4 13 29 43 72 l54 79 23 254 23 253 43 92 c24 51 75
161 114 246 l72 155 -98 -95 -98 -95 105 108 105 107 123 0 c98 0 144 5 225
25 56 14 110 30 119 35 15 9 16 7 8 -13 -14 -34 -42 -196 -35 -207 3 -6 2 -10
-3 -10 -15 0 -366 -410 -469 -547 -53 -70 -85 -119 -72 -108 24 20 450 426
605 578 58 56 91 81 117 87 21 4 37 7 38 6 0 0 26 -208 58 -461 32 -253 61
-453 64 -445 4 8 26 71 50 140 l44 125 31 -60 c22 -44 54 -82 118 -141 175
-159 293 -235 434 -279 77 -24 93 -25 188 -19 57 4 109 12 115 19 7 6 21 46
31 89 19 76 19 77 0 90 -10 8 -111 84 -223 170 -195 149 -208 162 -312 291
-59 74 -125 166 -146 204 -31 58 -40 68 -53 59 -8 -6 5 9 30 35 l45 46 95
-195 c53 -107 99 -191 103 -187 5 4 5 0 1 -10 -3 -10 -1 -17 6 -17 6 0 8 -5 5
-10 -3 -5 -1 -10 5 -10 8 0 9 104 4 364 l-7 364 36 -11 c20 -6 31 -14 26 -18
-9 -5 330 -229 346 -229 4 0 4 10 0 23 -5 20 -5 20 5 4 7 -10 9 -21 6 -24 -17
-17 46 -35 271 -75 l251 -45 108 17 c82 12 126 25 179 52 39 19 135 60 215 89
l145 54 -65 5 c-36 3 -74 11 -85 18 l-20 14 20 -8 c11 -5 55 -10 99 -12 l78
-4 184 123 c101 67 182 124 180 126 -2 2 -53 -5 -112 -16 -106 -20 -269 -38
-209 -23 18 4 -119 17 -345 31 l-375 23 -117 62 -117 62 76 139 c42 77 77 142
79 144 2 2 140 -94 308 -212 174 -123 301 -206 295 -194 -7 12 -32 57 -57 100
-24 43 -43 80 -41 82 2 2 70 -26 151 -61 l146 -65 245 118 c135 65 245 119
244 119 -1 1 -146 -15 -322 -36 l-320 -38 -111 59 c-61 32 -113 57 -116 54 -4
-5 -110 178 -116 201 -2 7 68 21 189 39 105 16 186 31 180 33 -7 2 -87 -3
-179 -12 -178 -17 -580 -95 -559 -108 7 -4 -3 -5 -20 -2 -23 5 -33 3 -33 -6 0
-8 -8 -10 -22 -7 -12 3 -30 1 -41 -4 -13 -8 -22 -8 -30 0 -8 8 -4 11 14 12 20
0 64 53 254 306 127 168 229 308 228 312 -1 4 122 44 273 91 151 46 277 87
279 90 9 14 -321 72 -634 111 l-328 42 -177 -42 c-97 -24 -176 -46 -176 -50 0
-4 -108 -203 -239 -442 l-240 -434 57 -11 c63 -12 121 -43 115 -61 -2 -6 2
-13 9 -16 7 -2 5 -3 -5 -1 -13 2 -28 -18 -57 -77 -22 -43 -38 -79 -35 -79 3 0
27 16 54 35 l50 36 134 -173 c74 -95 133 -175 131 -177 -2 -2 -33 15 -69 38
-36 23 -65 39 -65 36 0 -3 -20 8 -44 25 -25 16 -49 30 -55 30 -6 0 -10 4 -9 8
3 8 -125 122 -136 122 -13 0 -5 -48 9 -60 12 -10 15 -33 13 -104 l-2 -91 -3
92 c-3 65 -8 95 -18 103 -8 7 -15 18 -15 24 0 7 -22 -9 -50 -35 -27 -27 -73
-60 -102 -75 l-53 -27 -76 83 c-54 59 -78 79 -84 70 -6 -9 -13 -4 -25 20 -15
29 -15 39 -3 92 8 33 12 65 11 70 -2 5 -24 -8 -48 -30 l-44 -39 -189 175
c-103 96 -186 176 -184 179 3 2 32 -7 66 -21 33 -13 61 -23 61 -21 0 4 -87
247 -139 389 -6 16 -20 7 -102 -64 -52 -45 -94 -85 -94 -90 0 -5 101 -118 224
-252 123 -134 195 -215 160 -181 l-64 62 -64 -37 c-75 -42 -86 -34 100 -72
l106 -22 29 -59 c20 -43 48 -77 97 -121 49 -43 65 -63 56 -69 -9 -5 -17 1 -26
19 l-12 27 2 -30 c2 -25 6 -30 25 -28 14 2 21 -1 17 -7 -4 -6 8 -37 27 -68 48
-80 98 -190 98 -215 0 -11 -3 -17 -7 -14 -3 4 -26 -23 -51 -61 -25 -37 -48
-70 -51 -74 -4 -4 -1 47 5 115 7 67 11 123 9 125 -2 3 -93 -60 -159 -110 l-29
-22 7 84 c4 47 9 102 13 122 5 33 2 39 -16 46 -13 4 -22 12 -21 16 3 13 -91
117 -101 111 -5 -3 -6 0 -3 8 4 12 -177 246 -198 255 -5 2 -8 8 -8 13 0 5 -40
106 -90 225 l-90 216 0 204 0 203 -42 11 c-24 6 -55 15 -70 20 -27 9 -27 9
-31 -48 l-3 -57 -2 60 -2 61 -52 26 c-29 15 -99 52 -156 83 -71 38 -104 52
-107 43z m358 -508 l22 -25 -27 24 c-20 18 -28 33 -27 55 l2 31 4 -30 c3 -16
14 -41 26 -55z m1692 -48 c-3 -3 -11 0 -18 7 -9 10 -8 11 6 5 10 -3 15 -9 12
-12z m-1615 -17 c13 -14 21 -25 18 -25 -2 0 -15 11 -28 25 -13 14 -21 25 -18
25 2 0 15 -11 28 -25z m1580 16 c0 -5 -11 -12 -24 -15 -13 -3 -32 -8 -43 -11
-10 -3 0 3 22 14 49 24 45 23 45 12z m693 -358 c-7 -2 -21 -2 -30 0 -10 3 -4
5 12 5 17 0 24 -2 18 -5z m-60 -10 c-7 -2 -21 -2 -30 0 -10 3 -4 5 12 5 17 0
24 -2 18 -5z m-70 -10 c-7 -2 -19 -2 -25 0 -7 3 -2 5 12 5 14 0 19 -2 13 -5z
m-53 -7 c0 -2 -11 -6 -25 -8 -14 -3 -25 -1 -25 3 0 5 11 9 25 9 14 0 25 -2 25
-4z m-340 -46 c0 -6 -11 -8 -27 -4 -40 10 -41 14 -5 14 18 0 32 -5 32 -10z
m-80 -10 c10 -6 2 -7 -25 -3 -49 7 -58 13 -19 13 16 0 36 -5 44 -10z m-112 -7
c-10 -2 -26 -2 -35 0 -10 3 -2 5 17 5 19 0 27 -2 18 -5z m-90 -10 c-10 -2 -26
-2 -35 0 -10 3 -2 5 17 5 19 0 27 -2 18 -5z m-80 -10 c-10 -2 -28 -2 -40 0
-13 2 -5 4 17 4 22 1 32 -1 23 -4z m169 1 c-3 -3 -12 -4 -19 -1 -8 3 -5 6 6 6
11 1 17 -2 13 -5z m-259 -11 c-10 -2 -28 -2 -40 0 -13 2 -5 4 17 4 22 1 32 -1
23 -4z m215 0 c-7 -2 -21 -2 -30 0 -10 3 -4 5 12 5 17 0 24 -2 18 -5z m-70
-10 c-7 -2 -21 -2 -30 0 -10 3 -4 5 12 5 17 0 24 -2 18 -5z m-69 -15 c-3 -4
-11 -5 -19 -1 -21 7 -19 12 4 10 11 0 18 -5 15 -9z m341 -168 c27 -27 47 -50
44 -50 -3 0 -27 23 -54 50 -27 28 -47 50 -44 50 3 0 27 -22 54 -50z m-1328
-176 c-3 -3 -12 -4 -19 -1 -8 3 -5 6 6 6 11 1 17 -2 13 -5z m40 -10 c-3 -3
-12 -4 -19 -1 -8 3 -5 6 6 6 11 1 17 -2 13 -5z m418 -11 c-16 -3 -33 -10 -37
-16 -5 -8 -8 -6 -8 6 0 13 8 17 38 16 34 -2 34 -2 7 -6z m-542 -10 c-13 -2
-33 -2 -45 0 -13 2 -3 4 22 4 25 0 35 -2 23 -4z m194 1 c-3 -3 -12 -4 -19 -1
-8 3 -5 6 6 6 11 1 17 -2 13 -5z m-339 -11 c-21 -2 -57 -2 -80 0 -24 2 -7 4
37 4 44 0 63 -2 43 -4z m-200 -10 c-21 -2 -57 -2 -80 0 -24 2 -7 4 37 4 44 0
63 -2 43 -4z m-205 -10 c-24 -2 -62 -2 -85 0 -24 2 -5 4 42 4 47 0 66 -2 43
-4z m-205 -10 c-21 -2 -57 -2 -80 0 -24 2 -7 4 37 4 44 0 63 -2 43 -4z m3160
-40 c-10 -2 -26 -2 -35 0 -10 3 -2 5 17 5 19 0 27 -2 18 -5z m-110 -10 c-10
-2 -28 -2 -40 0 -13 2 -5 4 17 4 22 1 32 -1 23 -4z m-120 -10 c-10 -2 -28 -2
-40 0 -13 2 -5 4 17 4 22 1 32 -1 23 -4z m-120 -10 c-10 -2 -26 -2 -35 0 -10
3 -2 5 17 5 19 0 27 -2 18 -5z m-98 -13 c0 -13 -11 -13 -30 0 -12 8 -11 10 8
10 12 0 22 -4 22 -10z m-2777 -7 c-35 -2 -91 -2 -125 0 -35 2 -7 3 62 3 69 0
97 -1 63 -3z m2817 -13 c8 -5 11 -10 5 -10 -5 0 -17 5 -25 10 -8 5 -10 10 -5
10 6 0 17 -5 25 -10z m-1047 -17 c-7 -2 -19 -2 -25 0 -7 3 -2 5 12 5 14 0 19
-2 13 -5z m102 -18 c28 -7 41 -13 30 -13 -11 0 -42 6 -70 13 -27 7 -41 13 -30
13 11 0 43 -6 70 -13z m1015 5 c8 -5 11 -10 5 -10 -5 0 -17 5 -25 10 -8 5 -10
10 -5 10 6 0 17 -5 25 -10z m50 -20 c8 -5 11 -10 5 -10 -5 0 -17 5 -25 10 -8
5 -10 10 -5 10 6 0 17 -5 25 -10z m-929 -21 c13 -21 11 -35 -3 -17 -7 9 -29
21 -48 27 l-35 10 38 -3 c22 -2 43 -9 48 -17z m999 -9 c8 -5 11 -10 5 -10 -5
0 -17 5 -25 10 -8 5 -10 10 -5 10 6 0 17 -5 25 -10z m50 -20 c8 -5 11 -10 5
-10 -5 0 -17 5 -25 10 -8 5 -10 10 -5 10 6 0 17 -5 25 -10z m-1733 -52 c-3 -7
-5 -2 -5 12 0 14 2 19 5 13 2 -7 2 -19 0 -25z m723 -13 c0 -5 -5 -3 -10 5 -5
8 -10 20 -10 25 0 6 5 3 10 -5 5 -8 10 -19 10 -25z m-733 -47 c-3 -7 -5 -2 -5
12 0 14 2 19 5 13 2 -7 2 -19 0 -25z m-10 -50 c-3 -8 -6 -5 -6 6 -1 11 2 17 5
13 3 -3 4 -12 1 -19z m-7 -53 c0 -8 -4 -15 -10 -15 -5 0 -7 7 -4 15 4 8 8 15
10 15 2 0 4 -7 4 -15z"/>
<path d="M4197 3802 c-124 -64 -225 -117 -224 -119 2 -1 83 -16 181 -33 l179
-31 186 67 c102 36 192 69 198 73 7 4 -54 40 -141 83 l-153 76 -226 -116z"/>
<path d="M4520 3384 c-74 -7 -145 -13 -157 -13 -19 -1 -29 -23 -82 -183 -33
-100 -59 -183 -58 -184 3 -3 394 340 437 382 8 8 10 13 5 13 -6 -1 -71 -7
-145 -15z"/>
<path d="M4083 3343 c9 -2 23 -2 30 0 6 3 -1 5 -18 5 -16 0 -22 -2 -12 -5z"/>
<path d="M1665 1769 c-93 -57 -110 -72 -108 -92 3 -34 114 -491 122 -499 4 -4
42 28 86 72 71 72 77 80 64 97 -8 10 -68 83 -135 163 -112 135 -161 199 -122
160 8 -8 71 -82 139 -164 68 -82 125 -144 126 -139 4 11 -53 463 -59 468 -2 1
-52 -28 -113 -66z"/>
</g>
</svg>
